<?xml version="1.0" encoding="UTF-8"?>
<!--Generator: Apple Native CoreSVG 232.5-->
<!DOCTYPE svg
PUBLIC "-//W3C//DTD SVG 1.1//EN"
       "http://www.w3.org/Graphics/SVG/1.1/DTD/svg11.dtd">
<svg version="1.1" xmlns="http://www.w3.org/2000/svg" xmlns:xlink="http://www.w3.org/1999/xlink" width="3300" height="2200">
 <!--glyph: "uni1015B7.medium", point size: 100.0, font version: "19.0d7e1", template writer version: "128"-->
 <style>.monochrome-0 {-sfsymbols-variable-threshold:0.51;-sfsymbols-motion-group:2}
.monochrome-1 {-sfsymbols-variable-threshold:0.0;-sfsymbols-motion-group:1}
.monochrome-2 {-sfsymbols-motion-group:0}

.multicolor-0:tintColor {-sfsymbols-variable-threshold:0.51;-sfsymbols-motion-group:2}
.multicolor-1:tintColor {-sfsymbols-variable-threshold:0.0;-sfsymbols-motion-group:1}
.multicolor-2:tintColor {-sfsymbols-motion-group:0}

.hierarchical-0:secondary {-sfsymbols-variable-threshold:0.51;-sfsymbols-motion-group:2}
.hierarchical-1:secondary {-sfsymbols-variable-threshold:0.0;-sfsymbols-motion-group:1}
.hierarchical-2:primary {-sfsymbols-motion-group:0}

.SFSymbolsPreviewWireframe {fill:none;opacity:1.0;stroke:black;stroke-width:0.5}
</style>
 <g id="Notes">
  <rect height="2200" id="artboard" style="fill:white;opacity:1" width="3300" x="0" y="0"/>
  <line style="fill:none;stroke:black;opacity:1;stroke-width:0.5;" x1="263" x2="3036" y1="292" y2="292"/>
  <text style="stroke:none;fill:black;font-family:sans-serif;font-size:13;font-weight:bold;" transform="matrix(1 0 0 1 263 322)">Weight/Scale Variations</text>
  <text style="stroke:none;fill:black;font-family:sans-serif;font-size:13;text-anchor:middle;" transform="matrix(1 0 0 1 559.711 322)">Ultralight</text>
  <text style="stroke:none;fill:black;font-family:sans-serif;font-size:13;text-anchor:middle;" transform="matrix(1 0 0 1 856.422 322)">Thin</text>
  <text style="stroke:none;fill:black;font-family:sans-serif;font-size:13;text-anchor:middle;" transform="matrix(1 0 0 1 1153.13 322)">Light</text>
  <text style="stroke:none;fill:black;font-family:sans-serif;font-size:13;text-anchor:middle;" transform="matrix(1 0 0 1 1449.84 322)">Regular</text>
  <text style="stroke:none;fill:black;font-family:sans-serif;font-size:13;text-anchor:middle;" transform="matrix(1 0 0 1 1746.56 322)">Medium</text>
  <text style="stroke:none;fill:black;font-family:sans-serif;font-size:13;text-anchor:middle;" transform="matrix(1 0 0 1 2043.27 322)">Semibold</text>
  <text style="stroke:none;fill:black;font-family:sans-serif;font-size:13;text-anchor:middle;" transform="matrix(1 0 0 1 2339.98 322)">Bold</text>
  <text style="stroke:none;fill:black;font-family:sans-serif;font-size:13;text-anchor:middle;" transform="matrix(1 0 0 1 2636.69 322)">Heavy</text>
  <text style="stroke:none;fill:black;font-family:sans-serif;font-size:13;text-anchor:middle;" transform="matrix(1 0 0 1 2933.4 322)">Black</text>
  <line style="fill:none;stroke:black;opacity:1;stroke-width:0.5;" x1="263" x2="3036" y1="1903" y2="1903"/>
  <g transform="matrix(0.2 0 0 0.2 263 1933)">
   <path d="m46.2402 4.15039c21.5332 0 39.4531-17.8711 39.4531-39.4043s-17.9688-39.4043-39.502-39.4043c-21.4844 0-39.3555 17.8711-39.3555 39.4043s17.9199 39.4043 39.4043 39.4043Zm0-7.42188c-17.7246 0-31.8848-14.209-31.8848-31.9824s14.1113-31.9824 31.8359-31.9824c17.7734 0 32.0312 14.209 32.0312 31.9824s-14.209 31.9824-31.9824 31.9824Zm-17.9688-31.9824c0 2.14844 1.51367 3.61328 3.75977 3.61328h10.498v10.5957c0 2.19727 1.46484 3.71094 3.61328 3.71094 2.24609 0 3.71094-1.51367 3.71094-3.71094v-10.5957h10.5957c2.19727 0 3.71094-1.46484 3.71094-3.61328 0-2.19727-1.51367-3.71094-3.71094-3.71094h-10.5957v-10.5469c0-2.24609-1.46484-3.75977-3.71094-3.75977-2.14844 0-3.61328 1.51367-3.61328 3.75977v10.5469h-10.498c-2.24609 0-3.75977 1.51367-3.75977 3.71094Z"/>
  </g>
  <g transform="matrix(0.2 0 0 0.2 281.506 1933)">
   <path d="m58.5449 14.5508c27.2461 0 49.8047-22.6074 49.8047-49.8047 0-27.2461-22.6074-49.8047-49.8535-49.8047-27.1973 0-49.7559 22.5586-49.7559 49.8047 0 27.1973 22.6074 49.8047 49.8047 49.8047Zm0-8.30078c-23.0469 0-41.4551-18.457-41.4551-41.5039s18.3594-41.5039 41.4062-41.5039 41.5527 18.457 41.5527 41.5039-18.457 41.5039-41.5039 41.5039Zm-22.6562-41.5039c0 2.39258 1.66016 4.00391 4.15039 4.00391h14.3555v14.4043c0 2.44141 1.66016 4.15039 4.05273 4.15039 2.44141 0 4.15039-1.66016 4.15039-4.15039v-14.4043h14.4043c2.44141 0 4.15039-1.61133 4.15039-4.00391 0-2.44141-1.70898-4.15039-4.15039-4.15039h-14.4043v-14.3555c0-2.49023-1.70898-4.19922-4.15039-4.19922-2.39258 0-4.05273 1.70898-4.05273 4.19922v14.3555h-14.3555c-2.49023 0-4.15039 1.70898-4.15039 4.15039Z"/>
  </g>
  <g transform="matrix(0.2 0 0 0.2 304.924 1933)">
   <path d="m74.8535 28.3203c34.8145 0 63.623-28.8086 63.623-63.5742 0-34.8145-28.8574-63.623-63.6719-63.623-34.7656 0-63.5254 28.8086-63.5254 63.623 0 34.7656 28.8086 63.5742 63.5742 63.5742Zm0-9.08203c-30.1758 0-54.4434-24.3164-54.4434-54.4922 0-30.2246 24.2188-54.4922 54.3945-54.4922 30.2246 0 54.541 24.2676 54.541 54.4922 0 30.1758-24.2676 54.4922-54.4922 54.4922Zm-28.8574-54.4922c0 2.58789 1.85547 4.39453 4.58984 4.39453h19.7266v19.7754c0 2.68555 1.85547 4.58984 4.44336 4.58984 2.68555 0 4.54102-1.85547 4.54102-4.58984v-19.7754h19.7754c2.68555 0 4.58984-1.80664 4.58984-4.39453 0-2.73438-1.85547-4.58984-4.58984-4.58984h-19.7754v-19.7266c0-2.73438-1.85547-4.63867-4.54102-4.63867-2.58789 0-4.44336 1.9043-4.44336 4.63867v19.7266h-19.7266c-2.73438 0-4.58984 1.85547-4.58984 4.58984Z"/>
  </g>
  <text style="stroke:none;fill:black;font-family:sans-serif;font-size:13;font-weight:bold;" transform="matrix(1 0 0 1 263 1953)">Design Variations</text>
  <text style="stroke:none;fill:black;font-family:sans-serif;font-size:13;" transform="matrix(1 0 0 1 263 1971)">Symbols are supported in up to nine weights and three scales.</text>
  <text style="stroke:none;fill:black;font-family:sans-serif;font-size:13;" transform="matrix(1 0 0 1 263 1989)">For optimal layout with text and other symbols, vertically align</text>
  <text style="stroke:none;fill:black;font-family:sans-serif;font-size:13;" transform="matrix(1 0 0 1 263 2007)">symbols with the adjacent text.</text>
  <line style="fill:none;stroke:#00AEEF;stroke-width:0.5;opacity:1.0;" x1="776" x2="776" y1="1919" y2="1933"/>
  <g transform="matrix(0.2 0 0 0.2 776 1933)">
   <path d="m16.5527 0.78125c2.58789 0 3.85742-0.976562 4.78516-3.71094l6.29883-17.2363h28.8086l6.29883 17.2363c0.927734 2.73438 2.19727 3.71094 4.73633 3.71094 2.58789 0 4.24805-1.5625 4.24805-4.00391 0-0.830078-0.146484-1.61133-0.537109-2.63672l-22.9004-60.9863c-1.12305-2.97852-3.125-4.49219-6.25-4.49219-3.02734 0-5.07812 1.46484-6.15234 4.44336l-22.9004 61.084c-0.390625 1.02539-0.537109 1.80664-0.537109 2.63672 0 2.44141 1.5625 3.95508 4.10156 3.95508Zm13.4766-28.3691 11.8652-32.8613h0.244141l11.8652 32.8613Z"/>
  </g>
  <line style="fill:none;stroke:#00AEEF;stroke-width:0.5;opacity:1.0;" x1="792.836" x2="792.836" y1="1919" y2="1933"/>
  <text style="stroke:none;fill:black;font-family:sans-serif;font-size:13;font-weight:bold;" transform="matrix(1 0 0 1 776 1953)">Margins</text>
  <text style="stroke:none;fill:black;font-family:sans-serif;font-size:13;" transform="matrix(1 0 0 1 776 1971)">Leading and trailing margins on the left and right side of each symbol</text>
  <text style="stroke:none;fill:black;font-family:sans-serif;font-size:13;" transform="matrix(1 0 0 1 776 1989)">can be adjusted by modifying the x-location of the margin guidelines.</text>
  <text style="stroke:none;fill:black;font-family:sans-serif;font-size:13;" transform="matrix(1 0 0 1 776 2007)">Modifications are automatically applied proportionally to all</text>
  <text style="stroke:none;fill:black;font-family:sans-serif;font-size:13;" transform="matrix(1 0 0 1 776 2025)">scales and weights.</text>
  <g transform="matrix(0.2 0 0 0.2 1289 1933)">
   <path d="m14.209 9.32617 8.49609 8.54492c4.29688 4.3457 9.22852 4.05273 13.8672-1.07422l53.4668-58.9355-4.83398-4.88281-53.0762 58.3984c-1.75781 2.00195-3.41797 2.49023-5.76172 0.146484l-5.85938-5.81055c-2.34375-2.29492-1.80664-4.00391 0.195312-5.81055l57.373-54.0039-4.88281-4.83398-57.959 54.4434c-4.93164 4.58984-5.32227 9.47266-1.02539 13.8184Zm32.0801-90.9668c-2.09961 2.05078-2.24609 4.93164-1.07422 6.88477 1.17188 1.80664 3.4668 2.97852 6.68945 2.14844 7.32422-1.70898 14.9414-2.00195 22.0703 2.68555l-2.92969 7.27539c-1.70898 4.15039-0.830078 7.08008 1.85547 9.81445l11.4746 11.5723c2.44141 2.44141 4.49219 2.53906 7.32422 2.05078l5.32227-0.976562 3.32031 3.36914-0.195312 2.7832c-0.195312 2.49023 0.439453 4.39453 2.88086 6.78711l3.80859 3.71094c2.39258 2.39258 5.46875 2.53906 7.8125 0.195312l14.5508-14.5996c2.34375-2.34375 2.24609-5.32227-0.146484-7.71484l-3.85742-3.80859c-2.39258-2.39258-4.24805-3.17383-6.64062-2.97852l-2.88086 0.244141-3.22266-3.17383 1.2207-5.61523c0.634766-2.83203-0.146484-5.0293-3.07617-7.95898l-10.9863-10.9375c-16.6992-16.6016-38.8672-16.2109-53.3203-1.75781Zm7.4707 1.85547c12.1582-8.88672 28.6133-7.37305 39.7461 3.75977l12.1582 12.0605c1.17188 1.17188 1.36719 2.09961 1.02539 3.80859l-1.61133 7.42188 7.51953 7.42188 4.93164-0.292969c1.26953-0.0488281 1.66016 0.0488281 2.63672 1.02539l2.88086 2.88086-12.207 12.207-2.88086-2.88086c-0.976562-0.976562-1.12305-1.36719-1.07422-2.68555l0.341797-4.88281-7.4707-7.42188-7.61719 1.26953c-1.61133 0.341797-2.34375 0.195312-3.56445-0.976562l-10.0098-10.0098c-1.26953-1.17188-1.41602-2.00195-0.634766-3.85742l4.39453-10.4492c-7.8125-7.27539-17.9688-10.4004-28.125-7.42188-0.78125 0.195312-1.07422-0.439453-0.439453-0.976562Z"/>
  </g>
  <text style="stroke:none;fill:black;font-family:sans-serif;font-size:13;font-weight:bold;" transform="matrix(1 0 0 1 1289 1953)">Exporting</text>
  <text style="stroke:none;fill:black;font-family:sans-serif;font-size:13;" transform="matrix(1 0 0 1 1289 1971)">Symbols should be outlined when exporting to ensure the</text>
  <text style="stroke:none;fill:black;font-family:sans-serif;font-size:13;" transform="matrix(1 0 0 1 1289 1989)">design is preserved when submitting to Xcode.</text>
  <text id="template-version" style="stroke:none;fill:black;font-family:sans-serif;font-size:13;text-anchor:end;" transform="matrix(1 0 0 1 3036 1933)">Template v.5.0</text>
  <text style="stroke:none;fill:black;font-family:sans-serif;font-size:13;text-anchor:end;" transform="matrix(1 0 0 1 3036 1951)">Requires Xcode 15 or greater</text>
  <text id="descriptive-name" style="stroke:none;fill:black;font-family:sans-serif;font-size:13;text-anchor:end;" transform="matrix(1 0 0 1 3036 1969)">Generated from car.top.radiowaves.rear.right.fill</text>
  <text style="stroke:none;fill:black;font-family:sans-serif;font-size:13;text-anchor:end;" transform="matrix(1 0 0 1 3036 1987)">Typeset at 100.0 points</text>
  <text style="stroke:none;fill:black;font-family:sans-serif;font-size:13;" transform="matrix(1 0 0 1 263 726)">Small</text>
  <text style="stroke:none;fill:black;font-family:sans-serif;font-size:13;" transform="matrix(1 0 0 1 263 1156)">Medium</text>
  <text style="stroke:none;fill:black;font-family:sans-serif;font-size:13;" transform="matrix(1 0 0 1 263 1586)">Large</text>
 </g>
 <g id="Guides">
  <g id="H-reference" style="fill:#27AAE1;stroke:none;" transform="matrix(1 0 0 1 339 696)">
   <path d="M0.993654 0L3.63775 0L29.3281-67.1323L30.0303-67.1323L30.0303-70.459L28.1226-70.459ZM11.6885-24.4799L46.9815-24.4799L46.2315-26.7285L12.4385-26.7285ZM55.1196 0L57.7637 0L30.6382-70.459L29.4326-70.459L29.4326-67.1323Z"/>
  </g>
  <line id="Baseline-S" style="fill:none;stroke:#27AAE1;opacity:1;stroke-width:0.5;" x1="263" x2="3036" y1="696" y2="696"/>
  <line id="Capline-S" style="fill:none;stroke:#27AAE1;opacity:1;stroke-width:0.5;" x1="263" x2="3036" y1="625.541" y2="625.541"/>
  <g id="H-reference" style="fill:#27AAE1;stroke:none;" transform="matrix(1 0 0 1 339 1126)">
   <path d="M0.993654 0L3.63775 0L29.3281-67.1323L30.0303-67.1323L30.0303-70.459L28.1226-70.459ZM11.6885-24.4799L46.9815-24.4799L46.2315-26.7285L12.4385-26.7285ZM55.1196 0L57.7637 0L30.6382-70.459L29.4326-70.459L29.4326-67.1323Z"/>
  </g>
  <line id="Baseline-M" style="fill:none;stroke:#27AAE1;opacity:1;stroke-width:0.5;" x1="263" x2="3036" y1="1126" y2="1126"/>
  <line id="Capline-M" style="fill:none;stroke:#27AAE1;opacity:1;stroke-width:0.5;" x1="263" x2="3036" y1="1055.54" y2="1055.54"/>
  <g id="H-reference" style="fill:#27AAE1;stroke:none;" transform="matrix(1 0 0 1 339 1556)">
   <path d="M0.993654 0L3.63775 0L29.3281-67.1323L30.0303-67.1323L30.0303-70.459L28.1226-70.459ZM11.6885-24.4799L46.9815-24.4799L46.2315-26.7285L12.4385-26.7285ZM55.1196 0L57.7637 0L30.6382-70.459L29.4326-70.459L29.4326-67.1323Z"/>
  </g>
  <line id="Baseline-L" style="fill:none;stroke:#27AAE1;opacity:1;stroke-width:0.5;" x1="263" x2="3036" y1="1556" y2="1556"/>
  <line id="Capline-L" style="fill:none;stroke:#27AAE1;opacity:1;stroke-width:0.5;" x1="263" x2="3036" y1="1485.54" y2="1485.54"/>
  <line id="left-margin-Ultralight-S" style="fill:none;stroke:#00AEEF;stroke-width:0.5;opacity:1.0;" x1="515.92" x2="515.92" y1="600.785" y2="720.121"/>
  <line id="right-margin-Ultralight-S" style="fill:none;stroke:#00AEEF;stroke-width:0.5;opacity:1.0;" x1="603.502" x2="603.502" y1="600.785" y2="720.121"/>
  <line id="left-margin-Regular-S" style="fill:none;stroke:#00AEEF;stroke-width:0.5;opacity:1.0;" x1="1401.94" x2="1401.94" y1="600.785" y2="720.121"/>
  <line id="right-margin-Regular-S" style="fill:none;stroke:#00AEEF;stroke-width:0.5;opacity:1.0;" x1="1497.74" x2="1497.74" y1="600.785" y2="720.121"/>
  <line id="left-margin-Black-S" style="fill:none;stroke:#00AEEF;stroke-width:0.5;opacity:1.0;" x1="2883.72" x2="2883.72" y1="600.785" y2="720.121"/>
  <line id="right-margin-Black-S" style="fill:none;stroke:#00AEEF;stroke-width:0.5;opacity:1.0;" x1="2983.08" x2="2983.08" y1="600.785" y2="720.121"/>
 </g>
 <g id="Symbols">
  <g id="Black-S" transform="matrix(1 0 0 1 2883.72 696)">
   <path class="monochrome-0 multicolor-0:tintColor hierarchical-0:secondary SFSymbolsPreviewWireframe" d="M79.6875 5.76172C85.6445-0.195312 89.0137-7.8125 89.5996-15.918C89.7461-19.4336 87.3047-21.7285 84.0332-21.7285C81.2988-21.7285 79.248-19.5801 78.9551-15.9668C78.6621-10.5957 76.3672-5.71289 72.2656-1.61133C68.1641 2.49023 63.2812 4.54102 57.9102 5.07812C54.3457 5.41992 52.1484 7.42188 52.1484 10.1562C52.1484 13.4277 54.4434 15.8691 57.959 15.6738C66.0645 15.0879 73.6816 11.7676 79.6875 5.76172Z"/>
   <path class="monochrome-1 multicolor-1:tintColor hierarchical-1:secondary SFSymbolsPreviewWireframe" d="M68.6035-5.27344C72.1191-8.78906 74.2188-13.1836 74.9023-17.9688C75.3418-21.3867 72.9492-24.0723 69.4824-24.0723C66.748-24.0723 65.1367-22.168 64.4531-18.6035C64.0137-16.4551 63.0371-14.502 61.2305-12.6465C59.4238-10.8398 57.4219-9.91211 55.2734-9.42383C51.7578-8.74023 49.8047-7.12891 49.8047-4.39453C49.8047-0.927734 52.4902 1.46484 55.9082 1.02539C60.6934 0.341797 65.0879-1.75781 68.6035-5.27344Z"/>
   <path class="monochrome-2 multicolor-2:tintColor hierarchical-2:primary SFSymbolsPreviewWireframe" d="M37.1582-11.5723C52.002-11.5723 58.9355-15.8691 58.9355-25.1953L58.9355-71.0938C58.9355-81.2012 51.416-86.377 37.1582-86.377C22.9492-86.377 15.3809-81.1523 15.3809-71.0938L15.3809-25.1953C15.3809-15.8691 22.3633-11.5723 37.1582-11.5723ZM37.1582-53.7109C34.1797-53.7109 30.4199-53.3691 29.6875-53.3691C27.2461-53.3691 26.123-54.4434 25.9277-56.9336L25.3906-62.5488C24.9512-67.1875 28.5156-68.8965 37.1582-68.8965C45.8008-68.8965 49.3652-67.1875 48.9258-62.5488L48.3887-56.9336C48.1934-54.4434 47.0703-53.3691 44.6289-53.3691C43.8965-53.3691 40.1367-53.7109 37.1582-53.7109ZM37.1582-23.291C28.0273-23.291 24.8535-24.9023 25.4883-29.6387L25.8789-32.2754C26.3672-36.1328 29.6387-37.3047 37.1582-37.3047C44.6777-37.3047 47.9492-36.1328 48.4375-32.2754L48.8281-29.6387C49.4629-24.9023 46.2891-23.291 37.1582-23.291ZM17.8711-54.5898L17.8711-64.0137L13.7695-64.0137C11.3281-64.0137 9.76562-62.1582 9.76562-59.3262L9.76562-59.2285C9.76562-56.4453 11.3281-54.5898 13.7695-54.5898ZM56.4453-54.248L60.5469-54.248C62.9883-54.248 64.5508-56.1035 64.5508-58.8867L64.5508-58.9844C64.5508-61.8164 62.9883-63.6719 60.5469-63.6719L56.4453-63.6719Z"/>
  </g>
  <g id="Regular-S" transform="matrix(1 0 0 1 1401.94 696)">
   <path class="monochrome-0 multicolor-0:tintColor hierarchical-0:secondary SFSymbolsPreviewWireframe" d="M76.2695 5.12695C82.2266-0.78125 85.4004-8.25195 85.9863-16.4062C86.1816-18.7988 84.5215-20.0195 82.8613-20.0195C80.6641-20.0195 79.4922-18.9453 79.2969-16.1621C78.8086-10.0586 76.2695-4.15039 71.6309 0.537109C66.9434 5.17578 60.9863 7.71484 54.9316 8.1543C52.4902 8.34961 50.9766 9.57031 50.9766 11.4746C50.9766 13.5254 52.5391 14.9414 54.7363 14.9414C62.8418 14.9414 70.3125 11.1328 76.2695 5.12695Z"/>
   <path class="monochrome-1 multicolor-1:tintColor hierarchical-1:secondary SFSymbolsPreviewWireframe" d="M66.6016-4.49219C70.0195-7.86133 72.0215-12.0117 72.6074-16.6992C72.9492-19.043 71.4355-20.5078 69.5312-20.5078C67.3828-20.5078 66.4551-19.5801 66.0156-17.1875C65.4785-13.9648 64.1602-11.2793 62.0117-9.08203C59.7656-6.88477 57.1777-5.51758 54.3457-5.12695C51.6602-4.6875 50.4883-3.32031 50.4883-1.61133C50.4883 0.292969 51.9043 1.61133 53.8574 1.61133C56.9336 1.61133 62.5-0.390625 66.6016-4.49219Z"/>
   <path class="monochrome-2 multicolor-2:tintColor hierarchical-2:primary SFSymbolsPreviewWireframe" d="M36.7188-9.42383C51.9531-9.42383 58.4961-12.7441 58.4961-21.5332L58.4961-71.1426C58.4961-80.127 50.1953-85.4492 36.7188-85.4492C23.3398-85.4492 15.0391-80.127 15.0391-71.1426L15.0391-21.5332C15.0391-12.7441 21.5332-9.42383 36.7188-9.42383ZM36.7188-53.7598C34.0332-53.7598 29.7852-53.4668 28.2715-53.4668C25.9277-53.4668 24.9023-54.4922 24.6582-56.9824L24.1211-62.6465C23.6816-67.2852 27.002-68.8965 36.7188-68.8965C46.5332-68.8965 49.7559-67.2852 49.3652-62.6465L48.9258-56.9824C48.6816-54.4922 47.6074-53.4668 45.2148-53.4668C43.7012-53.4668 39.4531-53.7598 36.7188-53.7598ZM36.7188-22.3633C26.6602-22.3633 23.3398-23.877 24.2188-28.6133L24.6582-31.2988C25.3418-35.1074 28.1738-36.2793 36.7188-36.2793C45.3613-36.2793 48.291-35.1074 48.877-31.2988L49.3164-28.6133C50.0977-23.877 46.875-22.3633 36.7188-22.3633ZM18.7012-54.4434L18.7012-62.9395L13.3789-62.9395C11.377-62.9395 9.76562-61.377 9.76562-59.375L9.76562-58.0078C9.76562-56.0547 11.377-54.4434 13.3789-54.4434ZM54.7852-54.4434L60.1074-54.4434C62.1582-54.4434 63.7695-56.0547 63.7695-58.0078L63.7695-59.375C63.7695-61.377 62.1582-62.9395 60.1074-62.9395L54.7852-62.9395Z"/>
  </g>
  <g id="Ultralight-S" transform="matrix(1 0 0 1 515.92 696)">
   <path class="monochrome-0 multicolor-0:tintColor hierarchical-0:secondary SFSymbolsPreviewWireframe" d="M69.1856 2.85646C74.7339-2.68846 77.7715-10.1592 77.8126-18.1772C77.8262-18.9351 77.3013-19.3838 76.6856-19.3384C76.1685-19.3384 75.6324-18.9453 75.6187-18.0693C75.5845-10.7852 72.8638-3.96875 67.5894 1.26367C62.3116 6.58349 55.4917 9.30419 48.2564 9.33495C47.4043 9.30322 46.9805 9.84277 46.9351 10.3394C46.9351 10.9824 47.3623 11.4903 48.1519 11.4903C56.1666 11.4903 63.5918 8.45363 69.1856 2.85646Z"/>
   <path class="monochrome-1 multicolor-1:tintColor hierarchical-1:secondary SFSymbolsPreviewWireframe" d="M60.1988-6.12694C63.3897-9.31444 65.21-13.5102 65.2056-17.9707C65.2296-18.7705 64.7149-19.2363 64.0821-19.1909C63.2959-19.1909 63.0039-18.6719 63.0186-17.7324C63.0718-14.1919 61.6626-10.7344 58.606-7.67433C55.5879-4.65969 52.0918-3.24709 48.5332-3.31056C47.6187-3.2798 47.0825-3.00244 47.0825-2.15625C47.0371-1.61424 47.545-1.06785 48.3174-1.06785C52.7105-1.06785 56.96-2.88816 60.1988-6.12694Z"/>
   <path class="monochrome-2 multicolor-2:tintColor hierarchical-2:primary SFSymbolsPreviewWireframe" d="M32.8135-9.7417C45.2779-9.7417 52.2295-13.1074 52.2295-20.3071L52.2295-70.0073C52.2295-77.6748 45.2002-81.9981 32.8135-81.9981C20.5244-81.9981 13.4951-77.6748 13.4951-70.0073L13.4951-20.3071C13.4951-13.1074 20.398-9.7417 32.8135-9.7417ZM32.8589-51.6709C29.583-51.6709 24.9717-51.3779 23.458-51.3779C21.1143-51.3779 19.9981-52.3125 19.7539-54.8936L19.3531-59.5586C19.0044-63.834 20.8716-65.9903 32.8589-65.9903C44.853-65.9903 46.7588-63.834 46.4136-59.5586L46.0196-54.8936C45.7754-52.3125 44.6558-51.3779 42.3086-51.3779C40.7949-51.3779 35.4117-51.6709 32.8589-51.6709ZM32.8589-18.8213C22.3916-18.8213 19.253-20.2896 19.6778-24.708L19.9356-27.3482C20.3013-30.9297 23.2696-32.147 32.8589-32.147C42.5005-32.147 45.4756-30.9297 45.8345-27.3482L46.0469-24.708C46.4649-20.2896 43.333-18.8213 32.8589-18.8213ZM14.9322-55.8511L14.9322-61.2593L11.9712-61.2593C10.605-61.2593 9.76562-60.5142 9.76562-59.375L9.76562-57.6899C9.76562-56.5542 10.605-55.8511 11.9712-55.8511ZM50.8345-55.8511L53.7501-55.8511C55.1651-55.8511 56.0045-56.5542 56.0045-57.6899L56.0045-59.375C56.0045-60.5142 55.1651-61.2593 53.7501-61.2593L50.8345-61.2593Z"/>
  </g>
 </g>
</svg>
