<svg id="Layer_1" data-name="Layer 1" xmlns="http://www.w3.org/2000/svg" viewBox="0 0 3300 2200"><defs><style>.cls-1{fill:#fff;}.cls-11,.cls-2,.cls-7{fill:none;stroke-width:0.5px;}.cls-2{stroke:#000;}.cls-3,.cls-4{isolation:isolate;}.cls-4{font-size:13px;font-family:Helvetica;}.cls-5{letter-spacing:-0.02em;}.cls-6{letter-spacing:-0.07em;}.cls-7{stroke:#00aeef;}.cls-8{letter-spacing:-0.11em;}.cls-9{letter-spacing:-0.05em;}.cls-10{fill:#27aae1;}.cls-11{stroke:#27aae1;}</style></defs><g id="Page-1"><g id="manji"><g id="Notes"><rect id="artboard" class="cls-1" width="3300" height="2200"/><line id="Path" class="cls-2" x1="263" y1="292" x2="3036" y2="292"/><g id="Weight_Scale-Variations" data-name="Weight/Scale-Variations" class="cls-3"><text class="cls-4" transform="translate(263 322)"><tspan class="cls-5">W</tspan><tspan x="12.04" y="0">eight/Scale </tspan><tspan class="cls-6" x="79.97" y="0">V</tspan><tspan x="87.69" y="0">ariations</tspan></text></g><g id="Ultralight" class="cls-3"><text class="cls-4" transform="translate(533.71 322)">Ultralight</text></g><g id="Thin" class="cls-3"><text class="cls-4" transform="translate(843.42 322)">Thin</text></g><g id="Light" class="cls-3"><text class="cls-4" transform="translate(1138.63 322)">Light</text></g><g id="Regular" class="cls-3"><text class="cls-4" transform="translate(1426.84 322)">Regular</text></g><g id="Medium" class="cls-3"><text class="cls-4" transform="translate(1723.06 322)">Medium</text></g><g id="Semibold" class="cls-3"><text class="cls-4" transform="translate(2015.77 322)">Semibold</text></g><g id="Bold" class="cls-3"><text class="cls-4" transform="translate(2326.48 322)">Bold</text></g><g id="Heavy" class="cls-3"><text class="cls-4" transform="translate(2618.19 322)">Heavy</text></g><g id="Black" class="cls-3"><text class="cls-4" transform="translate(2917.4 322)">Black</text></g><line id="Path-2" data-name="Path" class="cls-2" x1="263" y1="1903" x2="3036" y2="1903"/><g id="Group"><path id="Shape" d="M272.25,1933.83a7.58,7.58,0,0,0,3-.62,7.89,7.89,0,0,0,2.52-1.7,8,8,0,0,0,1.71-2.52,7.76,7.76,0,0,0,0-6.08,8.06,8.06,0,0,0-1.72-2.52,7.88,7.88,0,0,0-2.51-1.71,7.66,7.66,0,0,0-3.05-.61,7.57,7.57,0,0,0-3,.61,7.88,7.88,0,0,0-2.51,1.71,8.18,8.18,0,0,0-1.7,2.52,7.76,7.76,0,0,0,0,6.08,8,8,0,0,0,1.71,2.52,7.85,7.85,0,0,0,2.51,1.7A7.58,7.58,0,0,0,272.25,1933.83Zm0-1.48a6.35,6.35,0,0,1-4.52-1.87,6.6,6.6,0,0,1-1.37-2,6.5,6.5,0,0,1-.49-2.49,6.25,6.25,0,0,1,.49-2.49,6.18,6.18,0,0,1,1.36-2,6.12,6.12,0,0,1,2-1.37,6.41,6.41,0,0,1,7,1.37,6.4,6.4,0,0,1,1.38,2,6.25,6.25,0,0,1,.49,2.49,6.32,6.32,0,0,1-.49,2.49,6.43,6.43,0,0,1-1.37,2,6.27,6.27,0,0,1-2,1.37A6.34,6.34,0,0,1,272.25,1932.35Zm-3.6-6.4a.69.69,0,0,0,.21.52.73.73,0,0,0,.55.2h2.11v2.12a.73.73,0,0,0,.19.53.69.69,0,0,0,.53.21.72.72,0,0,0,.53-.21.71.71,0,0,0,.21-.53v-2.12h2.11a.69.69,0,0,0,.74-.72.69.69,0,0,0-.74-.74H273v-2.11a.72.72,0,0,0-.74-.75.69.69,0,0,0-.53.21.76.76,0,0,0-.19.54v2.11h-2.11a.77.77,0,0,0-.55.2A.73.73,0,0,0,268.65,1926Z"/></g><g id="Group-2" data-name="Group"><path id="Shape-2" data-name="Shape" d="M293.58,1935.91a9.55,9.55,0,0,0,3.84-.78,10.18,10.18,0,0,0,3.18-2.16,10.35,10.35,0,0,0,2.16-3.18,9.84,9.84,0,0,0,0-7.68,10.35,10.35,0,0,0-2.16-3.18,10.11,10.11,0,0,0-3.19-2.16,9.87,9.87,0,0,0-7.69,0,10,10,0,0,0-3.17,2.16,10.15,10.15,0,0,0-2.15,3.18,9.84,9.84,0,0,0,0,7.68,10.32,10.32,0,0,0,2.15,3.18,10.18,10.18,0,0,0,3.18,2.16A9.6,9.6,0,0,0,293.58,1935.91Zm0-1.66a8.15,8.15,0,0,1-3.24-.64,8.4,8.4,0,0,1-4.42-4.43,8.32,8.32,0,0,1,1.78-9.11,8.05,8.05,0,0,1,2.63-1.78,8.5,8.5,0,0,1,6.47,0,8.28,8.28,0,0,1,4.43,4.43,8.1,8.1,0,0,1,.65,3.23,8.27,8.27,0,0,1-.64,3.23,8.37,8.37,0,0,1-4.43,4.43A8.1,8.1,0,0,1,293.58,1934.25ZM289,1926a.77.77,0,0,0,.24.58.84.84,0,0,0,.6.22h2.88v2.88a.81.81,0,0,0,.22.6.78.78,0,0,0,.58.23.85.85,0,0,0,.6-.23.81.81,0,0,0,.23-.6v-2.88h2.88a.82.82,0,0,0,.6-.22.8.8,0,0,0,.23-.58.81.81,0,0,0-.23-.6.83.83,0,0,0-.6-.23h-2.88v-2.87a.82.82,0,0,0-.23-.61.81.81,0,0,0-.6-.23.78.78,0,0,0-.58.23.85.85,0,0,0-.22.61v2.87h-2.88a.85.85,0,0,0-.61.23A.81.81,0,0,0,289,1926Z"/></g><g id="Group-3" data-name="Group"><path id="Shape-3" data-name="Shape" d="M320.62,1938.66a12.09,12.09,0,0,0,4-.65,12.9,12.9,0,0,0,3.49-1.82,13.18,13.18,0,0,0,2.77-2.76,12.81,12.81,0,0,0,1.82-3.5,12.54,12.54,0,0,0,0-8,12.75,12.75,0,0,0-1.82-3.49,13,13,0,0,0-6.27-4.6,12.57,12.57,0,0,0-8,0,13,13,0,0,0-6.25,4.6,12.55,12.55,0,0,0-2.47,7.48,12.3,12.3,0,0,0,.65,4,12.81,12.81,0,0,0,1.82,3.5,13,13,0,0,0,2.77,2.76,12.75,12.75,0,0,0,3.49,1.82A12,12,0,0,0,320.62,1938.66Zm0-1.81a10.93,10.93,0,0,1-3.45-.55,10.94,10.94,0,0,1-6.9-6.91,10.9,10.9,0,0,1,1.55-9.89,10.74,10.74,0,0,1,2.35-2.36,10.87,10.87,0,0,1,3-1.54,11.1,11.1,0,0,1,6.9,0,10.92,10.92,0,0,1,3,1.54,10.78,10.78,0,0,1,2.36,2.36,10.92,10.92,0,0,1,1.54,3,10.66,10.66,0,0,1,.56,3.45,10.85,10.85,0,0,1-4.45,8.8,11.23,11.23,0,0,1-3,1.55A10.93,10.93,0,0,1,320.62,1936.85Zm-5.77-10.9a.85.85,0,0,0,.25.63.92.92,0,0,0,.66.25h3.95v4a.89.89,0,0,0,.25.66.85.85,0,0,0,.64.26.92.92,0,0,0,.66-.25.9.9,0,0,0,.26-.67v-4h4a.85.85,0,0,0,.65-.25.86.86,0,0,0,.26-.63.88.88,0,0,0-.26-.66.86.86,0,0,0-.65-.26h-4v-3.94a.9.9,0,0,0-.26-.67.89.89,0,0,0-.66-.26.82.82,0,0,0-.64.26.9.9,0,0,0-.25.67V1925h-3.95a.9.9,0,0,0-.66.26A.87.87,0,0,0,314.85,1926Z"/></g><g id="Design-Variations" class="cls-3"><text class="cls-4" transform="translate(263 1953)">Design <tspan class="cls-6" x="44.08" y="0">V</tspan><tspan x="51.79" y="0">ariations</tspan></text></g><g id="Symbols-are-supported-in-up-to-nine-weights-and-three-scales." class="cls-3"><text class="cls-4" transform="translate(263 1971)">Symbols are supported in up to nine weights and three scales.</text></g><g id="For-optimal-layout-with-text-and-other-symbols_-vertically-align" data-name="For-optimal-layout-with-text-and-other-symbols,-vertically-align" class="cls-3"><text class="cls-4" transform="translate(263 1989)">For optimal layout with text and other symbols, vertically align</text></g><g id="symbols-with-the-adjacent-text." class="cls-3"><text class="cls-4" transform="translate(263 2007)">symbols with the adjacent text.</text></g><line id="Path-3" data-name="Path" class="cls-7" x1="776" y1="1919" x2="776" y2="1933"/><g id="Group-4" data-name="Group"><path id="Shape-4" data-name="Shape" d="M779.31,1933.16a1,1,0,0,0,.61-.17,1.18,1.18,0,0,0,.35-.58l1.26-3.44h5.76l1.26,3.44a1.18,1.18,0,0,0,.35.58,1,1,0,0,0,.6.17.9.9,0,0,0,.62-.22.77.77,0,0,0,.23-.58,1.67,1.67,0,0,0-.11-.53l-4.58-12.2a1.51,1.51,0,0,0-.48-.67,1.26,1.26,0,0,0-.77-.23,1.21,1.21,0,0,0-1.23.89l-4.58,12.22a1.67,1.67,0,0,0-.11.53.76.76,0,0,0,.22.58A.84.84,0,0,0,779.31,1933.16Zm2.7-5.68,2.37-6.57h0l2.37,6.57Z"/></g><line id="Path-4" data-name="Path" class="cls-7" x1="793.2" y1="1919" x2="793.2" y2="1933"/><g id="Margins" class="cls-3"><text class="cls-4" transform="translate(776 1953)">Margins</text></g><g id="Leading-and-trailing-margins-on-the-left-and-right-side-of-each-symbol" class="cls-3"><text class="cls-4" transform="translate(776 1971)">Leading and trailing margins on the left and right side of each symbol</text></g><g id="can-be-adjusted-by-modifying-the-x-location-of-the-margin-guidelines." class="cls-3"><text class="cls-4" transform="translate(776 1989)">can be adjusted by modifying the x-location of the margin guidelines.</text></g><g id="Modifications-are-automatically-applied-proportionally-to-all" class="cls-3"><text class="cls-4" transform="translate(776 2007)">Modifications are automatically applied proportionally to all</text></g><g id="scales-and-weights." class="cls-3"><text class="cls-4" transform="translate(776 2025)">scales and weights.</text></g><g id="Group-5" data-name="Group"><path id="Shape-5" data-name="Shape" d="M1291.84,1934.87l1.7,1.7a1.72,1.72,0,0,0,1.36.61,2.15,2.15,0,0,0,1.41-.82l10.7-11.79-1-1-10.61,11.68a1,1,0,0,1-.54.34.81.81,0,0,1-.62-.32l-1.17-1.16a.78.78,0,0,1-.31-.62,1,1,0,0,1,.35-.54l11.48-10.8-1-1-11.59,10.89a2.18,2.18,0,0,0-.8,1.4A1.78,1.78,0,0,0,1291.84,1934.87Zm6.42-18.2a1.05,1.05,0,0,0-.35.7,1.1,1.1,0,0,0,.13.68,1.08,1.08,0,0,0,.52.41,1.32,1.32,0,0,0,.82,0,8.28,8.28,0,0,1,2.22-.21,4.24,4.24,0,0,1,2.19.75l-.58,1.45a1.75,1.75,0,0,0-.14,1.09,1.79,1.79,0,0,0,.51.87l2.3,2.32a1.31,1.31,0,0,0,.7.43,2.18,2.18,0,0,0,.76,0l1.06-.2.67.68,0,.55a1.57,1.57,0,0,0,.09.69,1.92,1.92,0,0,0,.49.67l.76.74a1.16,1.16,0,0,0,.78.38,1,1,0,0,0,.78-.34l2.91-2.92a1,1,0,0,0,.34-.76,1.1,1.1,0,0,0-.37-.78l-.77-.76a2.38,2.38,0,0,0-.66-.5,1.5,1.5,0,0,0-.67-.1l-.58,0-.64-.63.24-1.13a1.29,1.29,0,0,0,0-.78,2.52,2.52,0,0,0-.58-.81l-2.2-2.19a9,9,0,0,0-2.66-1.86,7.27,7.27,0,0,0-2.84-.64,6.91,6.91,0,0,0-2.76.52A7.46,7.46,0,0,0,1298.26,1916.67Zm1.49.37a5.86,5.86,0,0,1,2-.94,6,6,0,0,1,2.1-.19,6.17,6.17,0,0,1,2.07.58,6.38,6.38,0,0,1,1.83,1.3l2.43,2.42a.73.73,0,0,1,.22.34.86.86,0,0,1,0,.42l-.32,1.48,1.5,1.49,1-.06a.78.78,0,0,1,.28,0,1,1,0,0,1,.24.18l.58.58-2.44,2.44-.58-.57a.66.66,0,0,1-.18-.25.6.6,0,0,1,0-.29l.07-1-1.5-1.48-1.52.25a.64.64,0,0,1-.72-.19l-2-2a.62.62,0,0,1-.22-.33.93.93,0,0,1,.1-.44l.87-2.09a6.41,6.41,0,0,0-2.63-1.51,5.25,5.25,0,0,0-3,0c-.08,0-.13,0-.15,0S1299.69,1917.1,1299.75,1917Z"/></g><g id="Exporting" class="cls-3"><text class="cls-4" transform="translate(1289 1953)">Exporting</text></g><g id="Symbols-should-be-outlined-when-exporting-to-ensure-the" class="cls-3"><text class="cls-4" transform="translate(1289 1971)">Symbols should be outlined when exporting to ensure the</text></g><g id="design-is-preserved-when-submitting-to-Xcode." class="cls-3"><text class="cls-4" transform="translate(1289 1989)">design is preserved when submitting to Xcode.</text></g><g id="template-version" class="cls-3"><text class="cls-4" transform="translate(2952 1933)"><tspan class="cls-8">T</tspan><tspan x="6.5" y="0">emplate </tspan><tspan class="cls-6" x="56.36" y="0">v</tspan><tspan x="61.9" y="0">.3.0</tspan></text></g><g id="Requires-Xcode-13-or-greater" class="cls-3"><text class="cls-4" transform="translate(2865 1951)">Requires Xcode 13 or greater</text></g><g id="descriptive-name" class="cls-3"><text class="cls-4" transform="translate(2901 1969)">Generated from square</text></g><g id="Typeset-at-100-points" class="cls-3"><text class="cls-4" transform="translate(2912 1987)"><tspan class="cls-9">T</tspan><tspan x="7.23" y="0">ypeset at 100 points</tspan></text></g><g id="Small" class="cls-3"><text class="cls-4" transform="translate(263 726)">Small</text></g><g id="Medium-2" data-name="Medium" class="cls-3"><text class="cls-4" transform="translate(263 1156)">Medium</text></g><g id="Large" class="cls-3"><text class="cls-4" transform="translate(263 1586)">Large</text></g></g><g id="Guides"><g id="H-reference"><path id="Shape-6" data-name="Shape" class="cls-10" d="M340,696h2.68l25.69-67.14H369v-3.32h-1.91Zm10.69-24.46H386l-.73-2.25H351.45ZM394.13,696h2.63l-27.14-70.46h-1.18v3.32Z"/></g><line id="Baseline-S" class="cls-11" x1="263" y1="696" x2="3036" y2="696"/><line id="Capline-S" class="cls-11" x1="263" y1="625.54" x2="3036" y2="625.54"/><g id="H-reference-2" data-name="H-reference"><path id="Shape-7" data-name="Shape" class="cls-10" d="M340,1126h2.68l25.69-67.14H369v-3.32h-1.91Zm10.69-24.46H386l-.73-2.25H351.45ZM394.13,1126h2.63l-27.14-70.46h-1.18v3.32Z"/></g><line id="Baseline-M" class="cls-11" x1="263" y1="1126" x2="3036" y2="1126"/><line id="Capline-M" class="cls-11" x1="263" y1="1055.54" x2="3036" y2="1055.54"/><g id="H-reference-3" data-name="H-reference"><path id="Shape-8" data-name="Shape" class="cls-10" d="M340,1556h2.68l25.69-67.14H369v-3.32h-1.91Zm10.69-24.46H386l-.73-2.25H351.45ZM394.13,1556h2.63l-27.14-70.46h-1.18v3.32Z"/></g><line id="Baseline-L" class="cls-11" x1="263" y1="1556" x2="3036" y2="1556"/><line id="Capline-L" class="cls-11" x1="263" y1="1485.54" x2="3036" y2="1485.54"/><line id="left-margin-Regular-M" class="cls-7" x1="1392.45" y1="1030.79" x2="1392.45" y2="1150.12"/><line id="right-margin-Regular-M" class="cls-7" x1="1507.24" y1="1030.79" x2="1507.24" y2="1150.12"/></g><g id="Symbols"><g id="Regular-M"><polygon id="Path-5" data-name="Path" points="1404.5 1123.59 1443.11 1123.59 1443.11 1096.02 1404.5 1096.02 1404.5 1045 1416.91 1045 1416.91 1083.61 1443.11 1083.61 1443.11 1045 1495.5 1045 1495.5 1057.41 1455.52 1057.41 1455.52 1083.61 1495.5 1083.61 1495.5 1136 1483.09 1136 1483.09 1096.02 1455.52 1096.02 1455.52 1136 1404.5 1136 1404.5 1123.59"/></g></g></g></g></svg>