<svg id="Layer_1" data-name="Layer 1" xmlns="http://www.w3.org/2000/svg" viewBox="0 0 3300 2200"><defs><style>.cls-1{fill:#fff;}.cls-11,.cls-2,.cls-7{fill:none;stroke-width:0.5px;}.cls-2{stroke:#000;}.cls-3,.cls-6{isolation:isolate;font-size:12px;}.cls-3{font-family:Arial-BoldMT, Arial;font-weight:700;}.cls-4{letter-spacing:-0.02em;}.cls-5{letter-spacing:-0.06em;}.cls-6{font-family:ArialMT, Arial;}.cls-7{stroke:#00aeef;}.cls-8{letter-spacing:-0.11em;}.cls-9{letter-spacing:-0.07em;}.cls-10{fill:#27aae1;}.cls-11{stroke:#27aae1;}</style></defs><g id="Notes"><rect id="artboard" class="cls-1" width="3300" height="2200"/><line class="cls-2" x1="263" y1="292" x2="3036" y2="292"/><text class="cls-3" transform="translate(263 322)"><tspan class="cls-4">W</tspan><tspan x="11.11" y="0">eight/Scale </tspan><tspan class="cls-5" x="77.8" y="0">V</tspan><tspan x="85.14" y="0">ariations</tspan></text><text class="cls-6" transform="translate(536.04 322)">Ultralight</text><text class="cls-6" transform="translate(844.75 322)">Thin</text><text class="cls-6" transform="translate(1140.12 322)">Light</text><text class="cls-6" transform="translate(1428.83 322)">Regular</text><text class="cls-6" transform="translate(1725.22 322)">Medium</text><text class="cls-6" transform="translate(2018.26 322)">Semibold</text><text class="cls-6" transform="translate(2327.97 322)">Bold</text><text class="cls-6" transform="translate(2619.68 322)">Heavy</text><text class="cls-6" transform="translate(2918.73 322)">Black</text><line class="cls-2" x1="263" y1="1903" x2="3036" y2="1903"/><path d="M272.25,1933.83a7.88,7.88,0,1,0-7.88-7.88A7.95,7.95,0,0,0,272.25,1933.83Zm0-1.48a6.4,6.4,0,1,1,6.39-6.4A6.36,6.36,0,0,1,272.25,1932.35Zm0-3c.47,0,.74-.32.74-.83v-1.87h2c.5,0,.83-.25.83-.72s-.31-.74-.83-.74h-2v-2c0-.52-.27-.84-.74-.84s-.72.34-.72.84v2h-2c-.51,0-.85.26-.85.74s.36.72.85.72h2v1.87C271.51,1929,271.76,1929.38,272.23,1929.38Z"/><path d="M293.22,1935.91a10,10,0,1,0-10-10A10,10,0,0,0,293.22,1935.91Zm0-1.66a8.3,8.3,0,1,1,8.3-8.3A8.27,8.27,0,0,1,293.22,1934.25Zm0-3.92a.81.81,0,0,0,.83-.92v-2.64h2.81c.55,0,.93-.28.93-.8a.82.82,0,0,0-.93-.83H294v-2.82a.82.82,0,0,0-.83-.93c-.52,0-.81.38-.81.93v2.82h-2.8a.83.83,0,0,0-.94.83c0,.52.4.8.94.8h2.8v2.64C292.38,1930,292.67,1930.33,293.19,1930.33Z"/><path d="M319.89,1938.66A12.72,12.72,0,1,0,307.18,1926,12.8,12.8,0,0,0,319.89,1938.66Zm0-1.81a10.9,10.9,0,1,1,10.9-10.9A10.87,10.87,0,0,1,319.89,1936.85Zm0-5.24a.88.88,0,0,0,.91-1v-3.75h3.92a.91.91,0,1,0,0-1.81h-3.92v-3.93a.91.91,0,1,0-1.8,0v3.93h-3.91a.91.91,0,1,0,0,1.81H319v3.75A.88.88,0,0,0,319.87,1931.61Z"/><text class="cls-3" transform="translate(263 1953)">Design <tspan class="cls-5" x="43.34" y="0">V</tspan><tspan x="50.68" y="0">ariations</tspan></text><text class="cls-6" transform="translate(263 1971)">Symbols are supported in up to nine weights and three scales.</text><text class="cls-6" transform="translate(263 1989)">For optimal layout with text and other symbols, vertically align</text><text class="cls-6" transform="translate(263 2007)">symbols with the adjacent text.</text><line class="cls-7" x1="776" y1="1919" x2="776" y2="1933"/><path d="M779.31,1933.13c.52,0,.77-.2,1-.74l1.26-3.45h5.76l1.26,3.45a.89.89,0,0,0,1,.74.78.78,0,0,0,.85-.8,1.4,1.4,0,0,0-.11-.53l-4.58-12.19a1.24,1.24,0,0,0-1.25-.9,1.21,1.21,0,0,0-1.23.89l-4.58,12.21a1.4,1.4,0,0,0-.11.53A.75.75,0,0,0,779.31,1933.13Zm2.7-5.67,2.37-6.57h0l2.37,6.57Z"/><line class="cls-7" x1="792.84" y1="1919" x2="792.84" y2="1933"/><text class="cls-3" transform="translate(776 1953)">Margins</text><text class="cls-6" transform="translate(776 1971)">Leading and trailing margins on the left and right side of each symbol</text><text class="cls-6" transform="translate(776 1989)">can be adjusted by modifying the x-location of the margin guidelines.</text><text class="cls-6" transform="translate(776 2007)">Modifications are automatically applied proportionally to all</text><text class="cls-6" transform="translate(776 2025)">scales and weights.</text><path d="M1291.84,1934.87l1.7,1.7c.86.87,1.85.81,2.77-.21l10.18-11.21a1.63,1.63,0,0,0,.85,0l1.06-.2.67.68,0,.55a1.55,1.55,0,0,0,.58,1.36l.76.74a1,1,0,0,0,1.56,0l2.91-2.92a1,1,0,0,0,0-1.54l-.77-.76a1.57,1.57,0,0,0-1.33-.6l-.58,0-.64-.63.24-1.13a1.57,1.57,0,0,0-.61-1.59l-2.2-2.19c-3.34-3.32-7.77-3.24-10.66-.35a1.14,1.14,0,0,0-.22,1.38,1.17,1.17,0,0,0,1.34.43,5.39,5.39,0,0,1,4.41.54l-.58,1.45a1.66,1.66,0,0,0-.1,1.24l-11.06,10.39C1291.06,1933,1291,1934,1291.84,1934.87Zm7.91-17.83a6.07,6.07,0,0,1,8,.75l2.43,2.42a.69.69,0,0,1,.21.76l-.32,1.48,1.5,1.49,1-.06a.54.54,0,0,1,.52.2l.58.58-2.44,2.44-.58-.57a.58.58,0,0,1-.21-.54l.07-1-1.5-1.48-1.52.25a.66.66,0,0,1-.72-.19l-2-2c-.25-.23-.28-.4-.12-.77l.87-2.09a5.75,5.75,0,0,0-5.62-1.48C1299.68,1917.28,1299.62,1917.15,1299.75,1917Zm-5.48,18.26-1.17-1.16c-.47-.46-.36-.8,0-1.16L1304,1922.8l1.47,1.49-10,11C1295.07,1935.68,1294.74,1935.77,1294.27,1935.3Z"/><text class="cls-3" transform="translate(1289 1953)">Exporting</text><text class="cls-6" transform="translate(1289 1971)">Symbols should be outlined when exporting to ensure the</text><text class="cls-6" transform="translate(1289 1989)">design is preserved when submitting to Xcode.</text><text id="template-version" class="cls-6" transform="translate(2958.85 1933)"><tspan class="cls-8">T</tspan><tspan x="6" y="0">emplate </tspan><tspan class="cls-9" x="52.03" y="0">v</tspan><tspan x="57.13" y="0">.2.0</tspan></text><text class="cls-6" transform="translate(2878.58 1951)">Requires Xcode 12 or greater</text><text class="cls-6" transform="translate(2890.6 1969)">Generated from music.note</text><text class="cls-6" transform="translate(2921.92 1987)"><tspan class="cls-5">T</tspan><tspan x="6.67" y="0">ypeset at 100 points</tspan></text><text class="cls-6" transform="translate(263 726)">Small</text><text class="cls-6" transform="translate(263 1156)">Medium</text><text class="cls-6" transform="translate(263 1586)">Large</text></g><g id="Guides"><g id="H-reference"><path class="cls-10" d="M340,696h2.68L352,671.54h32.76L394.13,696h2.63l-27.14-70.46h-2.5Zm28.37-67.14h.09l15.43,40.43h-31Z"/></g><line id="Baseline-S" class="cls-11" x1="263" y1="696" x2="3036" y2="696"/><line id="Capline-S" class="cls-11" x1="263" y1="625.54" x2="3036" y2="625.54"/><g id="H-reference-2" data-name="H-reference"><path class="cls-10" d="M340,1126h2.68l9.33-24.46h32.76l9.38,24.46h2.63l-27.14-70.46h-2.5Zm28.37-67.14h.09l15.43,40.43h-31Z"/></g><line id="Baseline-M" class="cls-11" x1="263" y1="1126" x2="3036" y2="1126"/><line id="Capline-M" class="cls-11" x1="263" y1="1055.54" x2="3036" y2="1055.54"/><g id="H-reference-3" data-name="H-reference"><path class="cls-10" d="M340,1556h2.68l9.33-24.46h32.76l9.38,24.46h2.63l-27.14-70.46h-2.5Zm28.37-67.14h.09l15.43,40.43h-31Z"/></g><line id="Baseline-L" class="cls-11" x1="263" y1="1556" x2="3036" y2="1556"/><line id="Capline-L" class="cls-11" x1="263" y1="1485.54" x2="3036" y2="1485.54"/><line id="left-margin" class="cls-7" x1="1407.61" y1="1030.79" x2="1407.61" y2="1150.12"/><line id="right-margin" class="cls-7" x1="1492.08" y1="1030.79" x2="1492.08" y2="1150.12"/></g><g id="Symbols"><g id="Regular-M"><path id="Path" d="M1491.36,1017.18c3.61-.83,6.32,1.6,6.32,5.55v95c0,17.8-13.46,24.41-22.46,24.41-10.16,0-17.38-6.55-17.38-15.91,0-9.1,5.58-15.29,17.44-17.93l.55-.12,9.73-2c2.61-.53,4-2.38,3.82-5.21l0-.3v-47.37c0-3.09-2-3.09-4-2.7l-53.74,11c-2.79.59-3.4,1.5-3.44,4.49v65.5c0,17.81-13.46,24.42-22.46,24.42-10.16,0-17.38-6.55-17.38-15.91,0-9.1,5.58-15.29,17.44-17.93l.55-.12,9.73-2c2.61-.53,4-2.38,3.82-5.21l0-.3-.13-77.27c0-3.32.73-6,6.15-7.13Z"/></g></g></svg>